<svg height="10px" viewBox="0 0 512.01672 512" width="10px" xmlns="http://www.w3.org/2000/svg">
<path d="m494.535156 422.046875c23.308594-23.355469 23.308594-61.167969 0-84.523437l-265.660156-265.660157-54.363281-54.355469c-11.203125-11.207031-26.398438-17.4999995-42.242188-17.4999995s-31.035156 6.2929685-42.238281 17.4999995l-72.535156 72.53125c-11.203125 11.203126-17.496094 26.398438-17.496094 42.242188 0 15.839844 6.292969 31.035156 17.496094 42.238281l54.394531 54.296875 265.675781 265.675782c23.355469 23.304687 61.167969 23.304687 84.523438 0zm-47.84375-90.558594c.03125 11.320313-4.46875 22.183594-12.492187 30.167969l-72.535157 72.53125c-16.664062 16.664062-43.675781 16.664062-60.339843 0l-169.019531-169.121094 132.804687-132.804687 169.089844 169.054687c8.023437 7.984375 12.523437 18.851563 12.492187 30.171875zm-429.585937-199.226562c-.035157-11.324219 4.46875-22.191407 12.5-30.171875l72.535156-72.535156c16.660156-16.660157 43.675781-16.660157 60.339844 0l90.5625 90.605468-132.839844 132.839844-90.589844-90.597656c-8.027343-7.972656-12.53125-18.824219-12.507812-30.140625zm332.527343 350.164062-18.773437-18.773437h.648437c15.847657.042968 31.054688-6.253906 42.230469-17.492188l72.535157-72.53125c11.234374-11.175781 17.535156-26.382812 17.492187-42.234375 0-.21875 0-.433593 0-.648437l18.773437 18.773437c16.640626 16.691407 16.640626 43.699219 0 60.390625l-72.449218 72.449219c-16.675782 16.714844-43.742188 16.742187-60.457032.066406zm0 0"/><path d="m174.535156 259.023438c-3.335937-3.332032-8.742187-3.328126-12.074218.011718-3.332032 3.335938-3.328126 8.742188.007812 12.074219l6.042969 6.039063c2.160156 2.15625 5.304687 2.996093 8.253906 2.203124 2.945313-.792968 5.246094-3.097656 6.03125-6.046874.789063-2.945313-.058594-6.089844-2.21875-8.246094zm0 0"/><path d="m204.726562 289.222656c-3.347656-3.230468-8.667968-3.1875-11.960937.105469s-3.339844 8.613281-.105469 11.960937l120.757813 120.757813c3.347656 3.234375 8.667969 3.1875 11.960937-.105469 3.292969-3.292968 3.335938-8.613281.105469-11.960937zm0 0"/></svg>