<svg height="10px" viewBox="0 0 512 512" width="10px" xmlns="http://www.w3.org/2000/svg"><path d="m59.734375 68.265625h-51.199219c-4.710937 0-8.535156-3.820313-8.535156-8.53125v-51.199219c0-4.710937 3.824219-8.535156 8.535156-8.535156h51.199219c4.710937 0 8.53125 3.824219 8.53125 8.535156v51.199219c0 4.710937-3.820313 8.53125-8.53125 8.53125zm-42.667969-17.066406h34.132813v-34.132813h-34.132813zm0 0"/><path d="m503.464844 68.265625h-51.199219c-4.710937 0-8.53125-3.820313-8.53125-8.53125v-51.199219c0-4.710937 3.820313-8.535156 8.53125-8.535156h51.199219c4.710937 0 8.535156 3.824219 8.535156 8.535156v51.199219c0 4.710937-3.824219 8.53125-8.535156 8.53125zm-42.664063-17.066406h34.132813v-34.132813h-34.132813zm0 0"/><path d="m59.734375 512h-51.199219c-4.710937 0-8.535156-3.824219-8.535156-8.535156v-51.199219c0-4.710937 3.824219-8.53125 8.535156-8.53125h51.199219c4.710937 0 8.53125 3.820313 8.53125 8.53125v51.199219c0 4.710937-3.820313 8.535156-8.53125 8.535156zm-42.667969-17.066406h34.132813v-34.132813h-34.132813zm0 0"/><path d="m503.464844 512h-51.199219c-4.710937 0-8.53125-3.824219-8.53125-8.535156v-51.199219c0-4.710937 3.820313-8.53125 8.53125-8.53125h51.199219c4.710937 0 8.535156 3.820313 8.535156 8.53125v51.199219c0 4.710937-3.824219 8.535156-8.535156 8.535156zm-42.664063-17.066406h34.132813v-34.132813h-34.132813zm0 0"/><path d="m452.265625 42.667969h-392.53125c-4.710937 0-8.535156-3.824219-8.535156-8.535157 0-4.710937 3.824219-8.53125 8.535156-8.53125h392.53125c4.710937 0 8.535156 3.820313 8.535156 8.53125 0 4.710938-3.824219 8.535157-8.535156 8.535157zm0 0"/><path d="m34.132812 460.800781c-4.710937 0-8.53125-3.824219-8.53125-8.535156v-392.53125c0-4.710937 3.820313-8.535156 8.53125-8.535156 4.710938 0 8.535157 3.824219 8.535157 8.535156v392.53125c0 4.710937-3.824219 8.535156-8.535157 8.535156zm0 0"/><path d="m452.265625 486.398438h-392.53125c-4.710937 0-8.535156-3.820313-8.535156-8.53125 0-4.710938 3.824219-8.535157 8.535156-8.535157h392.53125c4.710937 0 8.535156 3.824219 8.535156 8.535157 0 4.710937-3.824219 8.53125-8.535156 8.53125zm0 0"/><path d="m477.867188 460.800781c-4.710938 0-8.535157-3.824219-8.535157-8.535156v-392.53125c0-4.710937 3.824219-8.535156 8.535157-8.535156 4.710937 0 8.53125 3.824219 8.53125 8.535156v392.53125c0 4.710937-3.820313 8.535156-8.53125 8.535156zm0 0"/><path d="m324.265625 426.667969h-145.066406c-4.710938 0-8.53125-3.824219-8.53125-8.535157v-42.667968c0-4.707032 3.820312-8.53125 8.53125-8.53125h42.667969v-204.800782h-51.199219v25.601563c0 4.710937-3.824219 8.53125-8.535157 8.53125h-42.667968c-4.707032 0-8.53125-3.820313-8.53125-8.53125v-76.800781c0-4.710938 3.824218-8.535156 8.53125-8.535156h264.535156c4.710938 0 8.535156 3.824218 8.535156 8.535156v76.800781c0 4.710937-3.824218 8.53125-8.535156 8.53125h-42.667969c-4.710937 0-8.53125-3.820313-8.53125-8.53125v-25.601563h-51.199219v204.800782h42.664063c4.710937 0 8.535156 3.824218 8.535156 8.53125v42.667968c0 4.710938-3.824219 8.535157-8.535156 8.535157zm-136.53125-17.066407h128v-25.601562h-42.667969c-4.710937 0-8.53125-3.824219-8.53125-8.535156v-221.863282c0-4.710937 3.820313-8.535156 8.53125-8.535156h68.265625c4.710938 0 8.535157 3.824219 8.535157 8.535156v25.597657h25.597656v-59.734375h-247.464844v59.734375h25.601562v-25.597657c0-4.710937 3.820313-8.535156 8.53125-8.535156h68.265626c4.710937 0 8.535156 3.824219 8.535156 8.535156v221.863282c0 4.710937-3.824219 8.535156-8.535156 8.535156h-42.664063zm0 0"/></svg>